<svg width="176" height="64" viewBox="0 0 176 64" fill="none" xmlns="http://www.w3.org/2000/svg">
<g clip-path="url(#clip0_30_10)">
<path d="M1.3064 57.04C0.574816 56.5495 0.193346 55.7548 0.193346 54.662C0.480755 51.7128 2.1007 48.6209 5.0584 45.293C8.0161 41.9651 11.512 38.9849 15.5201 36.3399C14.1823 34.0737 12.5937 31.7703 10.7491 29.4296C8.68498 26.8219 6.90305 24.1397 5.40852 21.383C4.10734 19.0423 3.46981 16.5464 3.46981 13.8642C3.46981 11.9395 3.91399 10.0893 4.83892 8.27629C5.75863 6.46333 7.06504 4.91114 8.74769 3.63213C11.6113 1.44044 14.5011 0.31044 17.4588 0.235935C18.4464 0.235935 19.2721 0.502912 19.9044 1.06791C20.5733 1.63291 20.892 2.46488 20.892 3.52658C20.798 5.3768 20.1291 7.1525 18.9847 8.89096C18.7913 9.07722 18.6032 9.15794 18.4464 9.15794C18.065 9.15794 17.8716 8.92821 17.8716 8.51843C17.8716 8.25146 17.9657 8.02794 18.1904 7.87893C19.5595 6.51921 20.2232 5.08498 20.2232 3.57004C20.2232 2.73807 19.9671 2.13582 19.4602 1.68258C18.9533 1.26659 18.2844 1.04308 17.4274 1.04308C14.4384 1.22934 11.7367 2.32829 9.35386 4.36477C6.93962 6.40745 5.4451 9.08343 4.83892 12.3741C4.80757 12.7901 4.77622 13.2061 4.77622 13.622C4.77622 15.8882 5.41374 18.2662 6.65221 20.7249C7.92204 23.1773 9.60992 25.7478 11.7367 28.43C13.5814 30.8079 15.2013 33.2293 16.6018 35.6073C23.0554 31.2984 28.6207 29.1502 33.2924 29.1502C33.5171 29.1502 33.6112 29.2992 33.6112 29.5662C33.6112 29.7524 33.5171 29.9076 33.2924 29.9449C28.8089 29.9449 23.3742 32.0621 16.9519 36.3275C18.2897 38.7055 18.9533 41.2759 18.9533 44.0326L18.922 45.3551C18.2845 49.0555 16.4764 52.0419 13.456 54.2709C10.4042 56.4998 7.22703 57.6733 3.91921 57.7478C2.93157 57.7478 2.07457 57.518 1.31163 57.0648L1.3064 57.04ZM12.275 53.681C15.264 51.4893 17.0773 48.6954 17.6469 45.2557L17.6783 44.0078C17.6783 41.4746 17.0721 39.1339 15.865 37.0229C11.9562 39.6306 8.52299 42.5735 5.59664 45.8207C2.67029 49.0679 1.0817 52.0171 0.825646 54.6186C0.825646 56.1707 1.84464 56.922 3.90876 56.922C6.48499 56.922 9.2807 55.8293 12.2698 53.6748L12.275 53.681Z" fill="white" stroke="white" stroke-width="0.317974" stroke-miterlimit="10"/>
<path d="M38.3456 35.7749C38.3456 34.943 38.3456 34.4897 38.377 34.4525C37.6454 35.3217 36.8511 36.0792 36.0254 36.7932C35.1998 37.5134 34.3741 37.8859 33.5119 37.8859C32.0801 37.8859 31.3172 37.4327 31.1604 36.5634L31.129 35.9612C31.129 34.7132 31.7039 33.2045 32.8796 31.4288C33.005 31.1618 33.2297 31.0128 33.5799 31.0128C34.1181 31.0128 34.4055 31.2363 34.4055 31.6523L34.3114 31.8386C33.1984 33.9185 32.6288 35.39 32.6288 36.3337C32.6288 36.8242 32.9162 37.0912 33.5171 37.0912C34.1181 37.0912 34.7556 36.787 35.4872 36.222C36.825 35.2037 38.0321 33.9185 39.1451 32.2918L39.3698 31.9503C39.4953 31.6834 39.6259 31.4971 39.7513 31.3108C39.8767 31.1618 40.1955 31.0811 40.671 31.0811C41.0525 31.1929 41.2458 31.4226 41.2458 31.6834L41.1518 31.9131C40.4515 33.161 40.1014 34.4835 40.1014 35.9177C40.1014 36.6379 40.3261 37.2775 40.739 37.8425C41.1518 38.4075 41.6952 38.7117 42.4216 38.7117C44.3603 38.7117 47.3494 37.7679 51.3888 35.9177L57.0795 33.0493C57.3042 33.0493 57.4296 33.161 57.4296 33.428C57.4296 33.6515 57.3669 33.7695 57.2728 33.7695C57.2415 33.8068 56.6666 34.111 55.5902 34.676C49.518 37.8859 45.1285 39.4754 42.4268 39.4754C39.7252 39.4754 38.4554 38.2274 38.3561 35.7749H38.3456Z" fill="white" stroke="white" stroke-width="0.317974" stroke-miterlimit="10"/>
<path d="M54.6234 39.7423C54.6234 39.1401 54.8481 38.0784 55.261 36.5697C55.6738 35.0609 56.0866 33.7385 56.5621 32.6023C56.7868 32.149 57.1004 31.9255 57.4818 31.8448C58.088 31.8448 58.3702 32.1118 58.3702 32.6023V32.6395C58.3702 32.7513 58.3388 32.9437 58.2448 33.0927C57.3251 35.092 56.5935 36.8677 56.1441 38.3826C57.0638 37.2464 58.1769 36.0792 59.4833 34.8685C60.7844 33.695 61.8348 33.0927 62.5977 33.0927C63.298 33.0927 63.8676 33.2418 64.2804 33.546C64.6618 33.8502 64.9806 34.2227 65.2367 34.7194C65.4614 35.1727 65.6495 35.6259 65.8428 36.1164C66.0362 36.7187 66.2557 37.2526 66.5431 37.6997C66.8305 38.1529 67.2747 38.3826 67.8808 38.3826C69.8195 38.3826 72.9967 37.5134 77.3549 35.7749L83.1397 33.0927H83.171L83.2337 33.0182C83.3905 33.0927 83.4898 33.1673 83.5211 33.248C83.5525 33.3225 83.5838 33.397 83.5838 33.5149V33.6267C83.5838 33.664 83.5525 33.7385 83.4898 33.813L81.7392 34.6449C75.3482 37.6686 70.7392 39.1773 67.8808 39.1773C66.1616 39.1773 65.0538 38.7614 64.5103 37.8921C64.0034 36.9856 63.6533 36.1164 63.4913 35.2844C63.4286 34.9057 63.3032 34.5642 63.1725 34.2662C63.1098 33.9992 62.9165 33.8875 62.603 33.8875C61.8714 33.8875 60.821 34.527 59.4885 35.8494C58.1507 37.1719 56.8809 38.6434 55.6424 40.1956L55.6111 40.2701C55.5797 40.2701 55.517 40.3446 55.4543 40.3818C55.3916 40.4563 55.2975 40.4936 55.1669 40.4936C54.8168 40.4936 54.6287 40.2266 54.6287 39.7361L54.6234 39.7423Z" fill="white" stroke="white" stroke-width="0.317974" stroke-miterlimit="10"/>
<path d="M87.6546 35.1354C86.3534 36.8739 85.209 38.2336 84.2841 39.1401C83.3644 40.0838 82.6014 40.5371 81.9325 40.5371C80.8822 40.5371 80.2499 39.7423 80.0879 38.1591C80.0879 37.3271 80.3126 36.4579 80.7254 35.5514C81.1382 34.6449 81.7131 33.8502 82.4447 33.2107C83.1449 32.5712 83.9078 32.267 84.7335 32.267C85.2404 32.267 85.6218 32.416 85.8779 32.7575C86.1026 33.099 86.228 33.5149 86.228 33.9309C86.228 34.1979 86.1339 34.3469 85.9092 34.3469C85.7838 34.3469 85.6845 34.2724 85.5905 34.0799C85.4964 33.7385 85.2717 33.5894 84.9216 33.5894C84.0019 33.5894 83.2024 34.1544 82.476 35.2907C81.7444 36.4641 81.3943 37.5569 81.3943 38.5751C81.3943 39.3698 81.5511 39.7485 81.9012 39.7485C82.6955 39.7485 84.1273 38.4261 86.2228 35.8184C86.5729 35.4024 87.0171 34.8747 87.4926 34.1544C87.3358 33.0617 87.2679 31.851 87.2679 30.5285C87.2679 28.2623 87.5867 25.8471 88.2555 23.2767C88.8931 20.7063 89.7187 18.2165 90.7691 15.8324C91.7881 13.4544 92.8698 11.3372 94.0142 9.487C95.7961 6.65581 97.4474 5.14087 98.9733 4.99186C99.6108 4.99186 100.118 5.25883 100.531 5.74933C100.912 6.23982 101.105 7.03454 101.105 8.05278C101.105 9.90299 100.28 12.6224 98.6232 16.1738C95.8902 22.2957 92.5824 28.1506 88.7049 33.7012C88.9924 38.1218 90.8004 40.4626 94.0769 40.6488C96.303 40.6488 98.6232 39.6678 101.037 37.6624C103.676 35.6632 105.427 34.1482 106.221 33.1673C106.284 33.13 106.347 33.0927 106.378 33.0927C106.665 33.0927 106.791 33.2045 106.791 33.4715C106.791 33.5832 106.759 33.6577 106.665 33.7757C105.521 34.9864 103.77 36.4952 101.419 38.3454C98.9054 40.3881 96.4598 41.4063 94.0769 41.4063C90.3562 41.4063 88.2294 39.3264 87.6546 35.1354ZM96.8099 18.5891C99.1928 13.7152 100.405 10.201 100.405 8.05278C100.405 6.54405 99.9296 5.78658 98.9733 5.78658C98.017 5.78658 97.0346 6.65581 95.8588 8.43151C94.6831 10.2072 93.5386 12.4734 92.4256 15.1556C91.3125 17.8378 90.3928 20.6317 89.6612 23.4629C88.9296 26.3314 88.5482 28.8273 88.5482 30.9818L88.6109 32.5712C91.694 28.1133 94.427 23.4692 96.8151 18.5953L96.8099 18.5891Z" fill="white" stroke="white" stroke-width="0.317974" stroke-miterlimit="10"/>
<path d="M129.465 33.1672C129.528 33.2045 129.559 33.2418 129.59 33.3163C129.622 33.3535 129.622 33.428 129.622 33.546L129.465 33.7695C123.549 37.6624 118.69 39.6244 114.875 39.6244C113.542 39.6244 112.461 39.3201 111.698 38.6806C110.935 38.0784 110.491 37.2092 110.36 36.073C110.235 36.222 109.884 36.6007 109.278 37.2837C108.04 38.6434 107.021 39.3263 106.226 39.3263C105.082 39.3263 104.476 38.5316 104.413 36.9484C104.413 36.1164 104.669 35.2099 105.176 34.1917C105.683 33.1735 106.352 32.3042 107.115 31.5468C107.909 30.7893 108.703 30.4106 109.56 30.4106C110.261 30.4106 110.736 30.6403 111.024 31.1308C111.311 31.6213 111.468 32.1863 111.468 32.7947C111.468 32.981 111.436 33.0617 111.342 33.099C111.248 33.1362 111.154 33.1362 111.086 33.1362C111.055 33.1362 110.992 33.1362 110.961 33.099C110.898 33.099 110.867 33.0617 110.804 32.9872C110.773 32.9499 110.741 32.8754 110.741 32.7575C110.741 32.0807 110.391 31.7392 109.691 31.702C109.153 31.702 108.547 32.0435 107.909 32.7202C107.303 33.397 106.765 34.1917 106.352 35.0609C105.939 35.9674 105.714 36.6876 105.714 37.2899C105.714 38.0473 105.908 38.4633 106.284 38.5378C106.759 38.5378 107.334 38.1964 108.066 37.5196C108.766 36.8366 109.56 35.9736 110.417 34.8747C110.511 34.6449 110.705 34.5332 110.956 34.5332C111.431 34.5332 111.656 34.7629 111.656 35.2534C111.656 37.6314 112.738 38.8048 114.901 38.8048C118.528 38.8048 123.262 36.9173 129.109 33.1797L129.172 33.1052C129.298 33.1052 129.397 33.1424 129.46 33.1797L129.465 33.1672Z" fill="white" stroke="white" stroke-width="0.317974" stroke-miterlimit="10"/>
<path d="M131.722 58.9336C129.846 62.1436 127.845 63.7703 125.744 63.7703C125.138 63.7703 124.6 63.5406 124.156 63.0501C123.68 62.5968 123.455 61.8766 123.455 60.9329C123.455 58.5549 124.793 56.2142 127.495 53.9045C129.559 51.9798 132.104 50.0924 135.061 48.1614C136.969 42.7225 137.92 38.2646 137.92 34.7877C137.92 34.1482 137.857 33.844 137.732 33.844C137.444 33.844 136.431 34.7877 134.711 36.7125C134.267 37.2402 133.63 37.8487 132.804 38.5627C131.978 39.2829 131.184 39.6554 130.39 39.6554C128.864 39.6554 128.101 38.8607 128.07 37.3147C128.07 35.5763 128.42 33.8378 129.089 32.1428C129.151 31.8758 129.376 31.7268 129.726 31.7268C130.202 31.7268 130.458 31.9131 130.489 32.2918C130.489 32.4781 130.395 32.8568 130.202 33.428C129.757 34.3345 129.533 35.657 129.533 37.3582C129.533 38.2646 129.82 38.7924 130.39 38.9042C131.278 38.9042 132.203 38.3764 133.185 37.2775C134.142 36.222 134.711 35.5763 134.905 35.39C135.317 34.8995 135.824 34.409 136.368 33.8813C136.911 33.3535 137.355 33.0865 137.7 33.0865C138.082 33.1238 138.432 33.3163 138.719 33.726C139.007 34.1358 139.132 34.707 139.132 35.4645C139.132 37.9977 138.369 41.8471 136.843 47.0252C136.875 46.988 139.132 45.6283 143.553 42.9833C149.275 39.6989 154.203 36.4455 158.305 33.161C158.336 33.1238 158.399 33.0865 158.43 33.0865H158.493C158.718 33.0865 158.812 33.1983 158.812 33.4653C158.812 33.5025 158.812 33.577 158.781 33.6143C158.749 33.6515 158.718 33.726 158.686 33.7633C154.522 37.0477 149.563 40.3384 143.84 43.6228C142.409 44.492 141.139 45.2495 139.994 45.9635C138.881 46.6837 137.706 47.3977 136.467 48.1552C135.166 52.1226 133.603 55.7113 131.733 58.9212L131.722 58.9336ZM128.702 61.1253C129.752 59.8774 130.803 58.1762 131.848 56.0279C132.898 53.9107 133.849 51.6818 134.675 49.3411C127.651 53.8362 124.15 57.6857 124.15 60.9391C124.15 61.6593 124.307 62.1498 124.595 62.4851C124.882 62.8265 125.295 63.0128 125.77 63.0128C126.659 63.0128 127.646 62.3733 128.697 61.1253H128.702Z" fill="white" stroke="white" stroke-width="0.317974" stroke-miterlimit="10"/>
</g>
<defs>
<clipPath id="clip0_30_10">
<rect width="159" height="64" fill="white"/>
</clipPath>
</defs>
</svg>
